HIERARCHY
ROOT Hips
{
	OFFSET 0.00000 0.00000 0.00000
	CHANNELS 6 Xposition Yposition Zposition Zrotation Yrotation Xrotation 
	JOINT LHipJoint
	{
		OFFSET 0 0 0
		CHANNELS 3 Zrotation Yrotation Xrotation
		JOINT LeftHip
		{
			OFFSET 1.55766 -1.60504 1.11378
			CHANNELS 3 Zrotation Yrotation Xrotation
			JOINT LeftKnee
			{
				OFFSET 2.29047 -6.29302 0.00000
				CHANNELS 3 Zrotation Yrotation Xrotation
				JOINT LeftAnkle
				{
					OFFSET 2.52265 -6.93093 0.00000
					CHANNELS 3 Zrotation Yrotation Xrotation
					JOINT LeftToe
					{
						OFFSET 0.17633 -0.48446 2.02656
						CHANNELS 3 Zrotation Yrotation Xrotation
						End Site
						{
							OFFSET 0.00000 -0.00000 1.04989
						}
					}
				}
			}
		}
	}
	JOINT RHipJoint
	{
		OFFSET 0 0 0
		CHANNELS 3 Zrotation Yrotation Xrotation
		JOINT RightHip
		{
			OFFSET -1.48599 -1.60504 1.11378
			CHANNELS 3 Zrotation Yrotation Xrotation
			JOINT RightKnee
			{
				OFFSET -2.27280 -6.24448 0.00000
				CHANNELS 3 Zrotation Yrotation Xrotation
				JOINT RightAnkle
				{
					OFFSET -2.50834 -6.89161 0.00000
					CHANNELS 3 Zrotation Yrotation Xrotation
					JOINT RightToe
					{
						OFFSET -0.26967 -0.74090 2.08741
						CHANNELS 3 Zrotation Yrotation Xrotation
						End Site
						{
							OFFSET -0.00000 -0.00000 1.10614
						}
					}
				}
			}
		}
	}
	JOINT lowerback
	{
		OFFSET 0 0 0
		CHANNELS 3 Zrotation Yrotation Xrotation
		JOINT Chest
		{
			OFFSET 0.06481 2.02437 -0.08472
			CHANNELS 3 Zrotation Yrotation Xrotation
			JOINT Chest2
			{
				OFFSET 0.00015 1.96711 0.18069
				CHANNELS 3 Zrotation Yrotation Xrotation
				JOINT lowerneck
				{
					OFFSET 0 0 0
					CHANNELS 3 Zrotation Yrotation Xrotation
					JOINT Neck
					{
						OFFSET -0.29961 1.68293 -0.13041
						CHANNELS 3 Zrotation Yrotation Xrotation
						JOINT Head
						{
							OFFSET 0.59697 1.61501 -0.14669
							CHANNELS 3 Zrotation Yrotation Xrotation
							End Site
							{
								OFFSET 0.22973 1.74906 -0.10148
							}
						}
					}
				}
				JOINT LeftCollar
				{
					OFFSET 0 0 0
					CHANNELS 3 Zrotation Yrotation Xrotation
					JOINT LeftShoulder
					{
						OFFSET 3.37968 1.02893 0.31147
CHANNELS 3 Zrotation Xrotation Yrotation
						JOINT LeftElbow
						{
OFFSET 0 -5.198070 -0.000000
CHANNELS 3 Zrotation Xrotation Yrotation
							JOINT LeftWrist
							{
OFFSET 0 -3.093700 -0.000000
CHANNELS 3 Zrotation Xrotation Yrotation
								JOINT lhand
								{
									OFFSET 0 0 0
CHANNELS 3 Zrotation Xrotation Yrotation
									JOINT LFingers
									{
OFFSET 0 -0.672630 -0.000000
CHANNELS 3 Zrotation Xrotation Yrotation
										End Site
										{
OFFSET 0 -0.542290 -0.000000
										}
									}
								}
								JOINT LThumb
								{
OFFSET 0 0.000000 0.000000
CHANNELS 3 Zrotation Xrotation Yrotation
									End Site
									{
OFFSET 0 -0.550570 0.550570
									}
								}
							}
						}
					}
				}
				JOINT RightCollar
				{
					OFFSET 0 0 0
					CHANNELS 3 Zrotation Yrotation Xrotation
					JOINT RightShoulder
					{
						OFFSET -3.38254 0.96355 -0.16120
CHANNELS 3 Zrotation Xrotation Yrotation
						JOINT RightElbow
						{
OFFSET 0 -5.452220 -0.000000
CHANNELS 3 Zrotation Xrotation Yrotation
							JOINT RightWrist
							{
OFFSET 0 -3.012840 -0.000000
CHANNELS 3 Zrotation Xrotation Yrotation
								JOINT rhand
								{
									OFFSET 0 0 0
CHANNELS 3 Zrotation Xrotation Yrotation
									JOINT RFingers
									{
OFFSET 0 -0.622300 -0.000000
CHANNELS 3 Zrotation Xrotation Yrotation
										End Site
										{
OFFSET 0 -0.501710 -0.000000
										}
									}
								}
								JOINT RThumb
								{
OFFSET 0 0.000000 0.000000
CHANNELS 3 Zrotation Xrotation Yrotation
									End Site
									{
OFFSET 0 -0.509370 0.509370
									}
								}
							}
						}
					}
				}
			}
		}
	}
}
MOTION
Frames: 4
Frame Time: 0.008333333333333333
6.269900 15.767200 39.717600 -175.888000 -12.759700 -167.959000 0.000000 0.000000 0.000000 -15.764700 -0.277600 -25.454500 2.504100 9.845300 28.477300 0.915800 -10.213100 -17.464700 1.128000 -6.745900 -18.964800 0.000000 0.000000 0.000000 26.892200 -6.602200 -25.350600 -1.873600 -8.597700 24.544800 0.741900 24.398400 -11.689800 -0.044500 1.361700 -3.744600 6.996000 7.123400 -12.506000 -2.475700 8.108500 -6.296300 -5.306400 3.639000 1.645700 -24.060400 4.807600 -10.171000 39.049700 2.965600 16.285800 20.054200 1.953800 4.987000 0.000000 0.000000 0.000000 7.894200 5.940400 -42.552000 15.713700 -25.131000 3.523500 -12.988800 -41.420300 2.747600 0.000000 0.000000 0.000000 -7.125000 0.000000 0.000000 -29.073400 26.529300 -14.920700 0.000000 0.000000 0.000000 3.973200 5.570500 28.986700 -12.627600 -20.739200 -2.319800 -9.788100 27.437300 2.095000 0.000000 0.000000 0.000000 7.125000 0.000000 -0.000000 13.433500 31.911500 4.408500
6.272482 15.767192 39.726455 -175.876608 -12.853226 -167.990808 0.000000 0.000000 0.000000 -15.741766 -0.324429 -25.480102 2.508398 9.853187 28.502561 0.909669 -10.322702 -17.432811 1.122192 -6.729152 -18.915420 0.000000 0.000000 0.000000 26.899107 -6.541352 -25.316303 -1.871818 -8.593911 24.532992 0.712939 24.215452 -11.746788 -0.045673 1.379494 -3.793524 6.946143 7.170352 -12.502330 -2.443715 8.180051 -6.268000 -5.231174 3.679505 1.672839 -24.057714 4.879516 -10.471772 39.110038 3.159930 16.251279 20.095676 2.091078 4.963740 0.000000 0.000000 0.000000 7.969969 6.214787 -44.904056 15.892130 -25.374164 3.599666 -8.032956 -40.190235 5.019326 0.000000 0.000000 0.000000 -7.125000 0.000000 0.000000 -25.249212 24.711613 -13.699219 0.000000 0.000000 0.000000 3.876324 5.598774 29.008040 -12.598708 -20.696404 -2.309553 -10.094042 27.413072 1.963696 0.000000 0.000000 0.000000 7.125000 0.000000 0.000000 13.173075 31.790876 4.358190
6.275315 15.766617 39.734827 -175.850012 -12.973501 -168.037965 0.000000 0.000000 0.000000 -15.695592 -0.374689 -25.496938 2.514012 9.863309 28.535174 0.903738 -10.409528 -17.398746 1.100268 -6.665086 -18.726989 0.000000 0.000000 0.000000 26.929604 -6.506422 -25.265451 -1.868019 -8.585572 24.507333 0.683456 24.035208 -11.813002 -0.048482 1.420713 -3.907076 6.968892 7.276501 -12.479336 -2.485048 8.323222 -6.279391 -5.263777 3.751061 1.677915 -24.018626 4.916280 -10.545138 39.193261 3.267422 16.079877 20.115256 2.162031 4.889257 0.000000 0.000000 0.000000 8.230511 6.589962 -47.406945 16.165358 -25.744318 3.717476 -3.025959 -39.399177 6.795834 0.000000 0.000000 0.000000 -7.125000 0.000000 0.000000 -21.510057 23.193977 -12.151126 0.000000 0.000000 0.000000 3.925789 5.684523 28.817523 -12.579429 -20.667918 -2.302754 -10.386699 27.457304 1.877538 0.000000 0.000000 0.000000 7.125000 0.000000 0.000000 12.930281 31.713897 4.298693
6.277598 15.765926 39.742815 -175.845247 -13.104735 -168.082694 0.000000 0.000000 0.000000 -15.679807 -0.417280 -25.502998 2.516773 9.868296 28.551288 0.897556 -10.512195 -17.365655 1.086805 -6.625439 -18.610466 0.000000 0.000000 0.000000 26.931682 -6.482418 -25.226093 -1.867399 -8.584222 24.503142 0.653012 23.853189 -11.887603 -0.049999 1.442933 -3.968453 6.977005 7.371554 -12.450131 -2.533296 8.453808 -6.293417 -5.298653 3.816044 1.674427 -23.983243 4.926974 -10.597240 39.242078 3.342864 15.891324 20.113595 2.213733 4.820012 0.000000 0.000000 0.000000 8.495268 6.956589 -49.786038 16.426089 -26.094909 3.831488 1.913223 -38.796338 8.204430 0.000000 0.000000 0.000000 -7.125000 0.000000 0.000000 -17.890523 21.875969 -10.442821 0.000000 0.000000 0.000000 3.999742 5.801820 28.601507 -12.575215 -20.661711 -2.301272 -10.766009 27.550548 1.713840 0.000000 0.000000 0.000000 7.125000 0.000000 0.000000 12.608564 31.562024 4.234159
